<?xml version="1.0" standalone="no"?>
<!DOCTYPE svg PUBLIC "-//W3C//DTD SVG 20010904//EN"
 "http://www.w3.org/TR/2001/REC-SVG-20010904/DTD/svg10.dtd">
<svg version="1.0" xmlns="http://www.w3.org/2000/svg"
 width="329.000000pt" height="600.000000pt" viewBox="0 0 329.000000 600.000000"
 preserveAspectRatio="xMidYMid meet">

<g transform="translate(0.000000,600.000000) scale(0.100000,-0.100000)"
fill="#000000" stroke="none">
<path d="M1450 4805 c0 -8 7 -15 16 -15 14 0 14 3 4 15 -7 8 -14 15 -16 15 -2
0 -4 -7 -4 -15z"/>
<path d="M1758 4762 l-38 -18 28 -16 c33 -20 48 -13 57 25 8 31 3 32 -47 9z"/>
<path d="M1461 4731 c-10 -6 -10 -10 -1 -16 13 -8 24 -1 19 14 -3 6 -10 7 -18
2z"/>
<path d="M1472 4693 c-22 -23 -22 -27 -8 -41 15 -15 16 -15 16 0 0 9 4 18 9
20 11 4 25 48 14 47 -4 -1 -19 -12 -31 -26z"/>
<path d="M1507 4653 c-13 -24 -15 -62 -4 -71 9 -8 13 0 15 34 2 42 -1 54 -11
37z"/>
<path d="M1878 4633 c-19 -23 -31 -43 -24 -43 2 0 14 14 26 30 23 33 22 40 -2
13z"/>
<path d="M1791 4624 c0 -11 3 -14 6 -6 3 7 2 16 -1 19 -3 4 -6 -2 -5 -13z"/>
<path d="M1546 4579 c-5 -28 -8 -30 -36 -24 -38 8 -38 0 0 -20 25 -13 30 -13
30 -1 0 7 7 16 15 20 16 6 21 56 6 56 -5 0 -11 -14 -15 -31z"/>
<path d="M2011 4581 c-25 -35 -75 -62 -99 -55 -12 4 -14 3 -4 -3 10 -8 10 -12
-3 -23 -14 -12 -18 -11 -26 1 -7 11 -9 10 -9 -5 0 -11 -9 -30 -21 -42 -23 -25
-18 -44 12 -44 10 0 19 -6 19 -12 1 -14 80 71 80 85 0 4 19 33 41 63 23 30 39
57 36 60 -2 3 -14 -8 -26 -25z"/>
<path d="M1600 4524 c0 -14 3 -14 15 -4 8 7 15 14 15 16 0 2 -7 4 -15 4 -8 0
-15 -7 -15 -16z"/>
<path d="M1476 4435 c-3 -10 3 -17 20 -21 29 -7 39 -1 31 21 -8 19 -43 20 -51
0z"/>
<path d="M1654 4423 c-4 -16 -16 -38 -27 -50 -11 -13 -18 -25 -15 -28 3 -4 15
5 26 19 11 15 28 26 38 26 11 0 25 4 33 9 16 10 6 31 -15 31 -8 0 -14 5 -14
10 0 22 -20 8 -26 -17z"/>
<path d="M1812 4375 c-11 -13 -9 -15 13 -15 16 0 25 5 23 12 -6 18 -21 19 -36
3z"/>
<path d="M1210 4350 c0 -5 13 -10 30 -10 22 0 28 -4 24 -15 -7 -18 17 -20 34
-3 18 18 14 30 -7 23 -11 -3 -22 -1 -26 5 -8 13 -55 13 -55 0z"/>
<path d="M1370 4355 c0 -18 19 -40 26 -32 4 4 0 15 -9 24 -9 10 -17 13 -17 8z"/>
<path d="M1711 4353 c-1 -6 -4 -20 -7 -30 -5 -17 -5 -17 6 0 6 10 9 23 6 30
-3 9 -5 9 -5 0z"/>
<path d="M1154 4332 c-12 -8 -26 -42 -18 -42 4 0 19 11 36 25 24 20 26 25 11
25 -10 0 -23 -4 -29 -8z"/>
<path d="M1420 4271 c0 -5 14 -9 30 -9 17 1 30 5 30 10 0 4 -13 8 -30 8 -16 0
-30 -4 -30 -9z"/>
<path d="M1525 4250 c-4 -6 -3 -16 3 -22 6 -6 12 -6 17 2 4 6 3 16 -3 22 -6 6
-12 6 -17 -2z"/>
<path d="M1732 4225 c-7 -14 -12 -31 -12 -38 1 -7 7 3 16 22 17 39 13 54 -4
16z"/>
<path d="M1653 4207 c-19 -41 -35 -98 -29 -104 6 -6 6 -5 31 70 17 51 16 73
-2 34z"/>
<path d="M1530 4190 c-13 -9 -13 -11 0 -20 15 -10 40 -14 40 -6 0 11 -13 36
-19 36 -3 0 -13 -5 -21 -10z"/>
<path d="M1997 4160 c-14 -11 -28 -20 -31 -20 -3 0 -28 -16 -55 -35 -26 -19
-53 -35 -58 -35 -11 0 -179 -116 -187 -129 -6 -10 90 27 179 68 64 30 223 170
194 171 -9 0 -28 -9 -42 -20z m-157 -134 c0 -3 -4 -8 -10 -11 -5 -3 -10 -1
-10 4 0 6 5 11 10 11 6 0 10 -2 10 -4z"/>
<path d="M1696 4135 c-9 -26 -7 -32 5 -12 6 10 9 21 6 23 -2 3 -7 -2 -11 -11z"/>
<path d="M1325 4130 c4 -6 11 -8 16 -5 14 9 11 15 -7 15 -8 0 -12 -5 -9 -10z"/>
<path d="M1448 4133 c7 -3 16 -2 19 1 4 3 -2 6 -13 5 -11 0 -14 -3 -6 -6z"/>
<path d="M1290 4120 c20 -13 33 -13 25 0 -3 6 -14 10 -23 10 -15 0 -15 -2 -2
-10z"/>
<path d="M1239 4107 c-7 -8 -21 -12 -30 -10 -9 3 -19 0 -23 -5 -6 -10 46 -16
270 -31 67 -5 126 -11 131 -14 5 -3 9 -19 8 -34 -2 -18 -1 -20 2 -5 2 12 9 22
14 22 19 0 21 -30 3 -62 -49 -93 -57 -111 -64 -144 -11 -46 7 -41 38 12 13 21
21 30 17 19 -16 -48 -25 -136 -16 -153 9 -15 10 -15 11 -1 0 9 7 49 16 88 13
57 20 71 35 71 10 0 19 -5 19 -12 0 -6 2 -9 5 -6 9 8 -6 38 -16 32 -5 -3 -12
3 -16 12 -6 16 -7 16 -14 -2 -7 -18 -8 -18 -8 -1 -1 11 8 21 20 24 16 4 17 8
7 14 -18 11 -17 69 1 69 11 0 11 4 -2 18 -10 10 -17 25 -17 33 0 17 -74 53
-110 54 -14 0 -29 3 -35 7 -5 3 -31 3 -57 -1 -46 -8 -127 -1 -159 13 -10 4
-22 1 -30 -7z"/>
<path d="M441 3838 c-10 -30 -18 -38 -36 -38 -13 0 -27 -4 -30 -10 -3 -5 -1
-10 6 -10 7 0 23 -10 35 -21 l23 -22 45 27 c32 19 46 22 49 13 3 -6 5 2 5 18
0 17 -2 24 -5 18 -2 -7 -12 -13 -22 -13 -9 0 -26 -7 -38 -15 -19 -14 -21 -13
-25 10 -3 13 -1 26 4 27 6 2 8 15 6 28 -3 23 -5 21 -17 -12z"/>
<path d="M632 3845 c0 -16 2 -22 5 -12 2 9 2 23 0 30 -3 6 -5 -1 -5 -18z"/>
<path d="M1630 3764 c0 -8 5 -12 10 -9 6 3 10 10 10 16 0 5 -4 9 -10 9 -5 0
-10 -7 -10 -16z"/>
<path d="M614 3711 c-5 -22 -11 -30 -21 -27 -8 4 -19 6 -24 6 -6 0 -7 5 -4 10
3 6 -1 10 -10 10 -9 0 -18 -12 -21 -30 -6 -29 -7 -29 -57 -24 -28 3 -61 10
-74 15 -13 5 -30 9 -36 9 -14 -1 38 -30 61 -35 9 -2 28 -7 42 -13 14 -5 31 -7
39 -4 9 3 11 0 6 -8 -6 -9 -4 -12 6 -8 8 3 39 11 69 17 118 27 128 31 133 53
4 12 5 24 3 25 -2 2 -24 -5 -49 -16 l-46 -20 1 30 c1 42 -11 48 -18 10z"/>
<path d="M1637 3734 c-4 -4 -7 -14 -7 -23 0 -11 3 -12 11 -4 6 6 10 16 7 23
-2 6 -7 8 -11 4z"/>
<path d="M748 3683 c-35 -9 -18 -24 20 -17 64 12 82 23 37 22 -22 0 -48 -2
-57 -5z"/>
<path d="M1690 3680 c-8 -5 -11 -12 -7 -16 4 -4 13 -2 19 4 15 15 7 24 -12 12z"/>
<path d="M220 3600 c0 -11 -6 -23 -14 -26 -8 -3 -12 -12 -10 -19 3 -7 -4 -18
-15 -25 -12 -6 -21 -18 -21 -26 0 -8 5 -12 10 -9 6 3 15 3 21 -1 7 -4 1 -13
-15 -23 -14 -10 -23 -21 -19 -25 4 -4 -1 -4 -11 0 -14 5 -17 3 -14 -7 5 -15
47 -22 49 -8 1 5 2 14 3 20 0 6 9 16 18 23 16 12 16 13 -2 26 -23 16 -17 30
13 31 12 0 16 3 10 6 -16 6 0 39 31 65 l21 17 -27 1 c-22 0 -28 -5 -28 -20z"/>
<path d="M270 3569 c-16 -16 -30 -31 -30 -34 0 -8 53 6 64 16 6 5 19 9 30 9
44 0 48 17 7 27 -38 10 -42 9 -71 -18z"/>
<path d="M207 3463 c-4 -3 -7 -13 -7 -21 0 -12 3 -12 15 -2 8 7 15 16 15 21 0
11 -14 12 -23 2z"/>
<path d="M216 3424 c-4 -10 -1 -14 6 -12 15 5 23 28 10 28 -5 0 -13 -7 -16
-16z"/>
<path d="M835 3379 c-16 -4 -43 -11 -58 -14 -20 -4 -27 -10 -23 -20 4 -11 -3
-15 -26 -15 -26 0 -29 -2 -18 -15 10 -12 9 -15 -6 -17 -11 0 -27 -1 -36 0 -33
3 -18 -17 20 -27 77 -19 92 -21 92 -13 0 5 17 14 38 21 20 7 44 15 52 18 8 3
2 -5 -12 -18 -17 -16 -24 -30 -19 -38 13 -20 64 16 58 41 -3 11 3 24 14 32 20
13 20 14 0 19 -11 3 -22 0 -23 -5 -4 -10 -108 -31 -115 -24 -2 2 3 10 11 19 8
8 12 18 8 22 -4 5 -2 5 4 2 6 -3 21 -1 35 6 28 14 49 15 67 3 7 -4 16 -5 19
-2 4 3 1 6 -5 6 -7 0 -12 7 -12 15 0 16 -19 18 -65 4z"/>
<path d="M635 3319 c-11 -17 0 -20 21 -4 17 13 17 14 2 15 -9 0 -20 -5 -23
-11z"/>
<path d="M511 3254 c0 -11 3 -14 6 -6 3 7 2 16 -1 19 -3 4 -6 -2 -5 -13z"/>
<path d="M491 3207 c-13 -21 -12 -21 5 -5 10 10 16 20 13 22 -3 3 -11 -5 -18
-17z"/>
<path d="M3160 2645 c-8 -9 -8 -15 -2 -15 12 0 26 19 19 26 -2 2 -10 -2 -17
-11z"/>
<path d="M3195 2500 c-3 -5 1 -10 9 -10 8 0 18 5 21 10 3 6 -1 10 -9 10 -8 0
-18 -4 -21 -10z"/>
<path d="M2430 2270 c0 -12 28 -21 35 -11 2 5 -4 11 -15 14 -11 3 -20 2 -20
-3z"/>
<path d="M2608 2173 c7 -3 16 -2 19 1 4 3 -2 6 -13 5 -11 0 -14 -3 -6 -6z"/>
<path d="M2663 1955 c0 -8 4 -12 9 -9 4 3 8 9 8 15 0 5 -4 9 -8 9 -5 0 -9 -7
-9 -15z"/>
<path d="M2745 1900 c4 -6 11 -8 16 -5 14 9 11 15 -7 15 -8 0 -12 -5 -9 -10z"/>
<path d="M679 1673 c4 -16 15 -29 24 -31 16 -3 16 -1 -1 27 -21 38 -33 40 -23
4z"/>
<path d="M827 1636 c-4 -10 -5 -21 -2 -24 9 -9 17 6 13 25 -3 17 -4 17 -11 -1z"/>
<path d="M683 1507 c-10 -91 -10 -127 2 -71 3 16 15 46 25 66 24 45 25 55 4
37 -15 -12 -16 -10 -10 18 4 17 3 33 -1 36 -5 3 -14 -36 -20 -86z"/>
<path d="M788 1564 c-14 -22 -34 -61 -44 -89 -9 -27 -26 -58 -36 -68 -35 -34
-18 -29 25 7 37 32 175 106 198 106 5 0 9 7 9 16 0 13 -6 12 -35 -6 -40 -25
-43 -23 -15 10 22 25 26 40 10 40 -5 0 -20 -18 -32 -40 -13 -22 -27 -42 -33
-44 -5 -2 -27 -11 -47 -20 l-38 -16 17 37 c10 21 26 48 36 60 11 12 17 27 15
33 -2 7 -15 -5 -30 -26z"/>
<path d="M1168 1513 c7 -3 16 -2 19 1 4 3 -2 6 -13 5 -11 0 -14 -3 -6 -6z"/>
<path d="M660 1345 c-6 -16 -50 -68 -97 -117 -48 -48 -84 -88 -81 -88 3 0 42
37 87 82 78 77 119 133 107 145 -3 3 -10 -7 -16 -22z"/>
</g>
</svg>
